<svg xmlns="http://www.w3.org/2000/svg" width="800" height="730" viewBox="-30 120 700 730">
  <switch>
      <g>
        <path d="M249.8 26.9c-98.6 0-192 43.1-256.3 118.1 -13.5 15.8-11.7 39.5 4.1 53 15.8 13.5 39.5 11.7 53-4.1 49.9-58.4 122.5-91.8 199.1-91.8 144.5 0 262 117.6 262 262 0 144.5-117.5 262-262 262 -76.6 0-149.2-33.5-199.1-91.8 -13.5-15.8-37.2-17.6-53-4.1 -15.8 13.5-17.6 37.2-4.1 53 64.2 75.1 157.6 118.1 256.3 118.1 186 0 337.2-151.3 337.2-337.2C587.1 178.2 435.8 26.9 249.8 26.9z" fill="#D8D9DA"/>
        <path d="M134.8 487.2c-14.7 14.7-14.7 38.5 0 53.2 7.3 7.3 17 11 26.6 11 9.6 0 19.2-3.7 26.6-11l151.2-151.2c6.8-6.8 11-16.2 11-26.6 0-10.4-4.2-19.8-11-26.6L187.9 184.8c-14.7-14.7-38.5-14.7-53.2 0 -14.7 14.7-14.7 38.5 0 53.2l87 87H-33.8c-20.8 0-37.6 16.8-37.6 37.6 0 20.8 16.8 37.6 37.6 37.6h255.6L134.8 487.2z" fill="#D8D9DA"/>
    </g>
  </switch>
</svg>
