<svg xmlns="http://www.w3.org/2000/svg" width="40" height="40" viewBox="238 344 40 40">
  <switch>
    <g>
      <circle cx="257.8" cy="364.2" r="19.3" fill="#FFF"/>
      <circle cx="257.8" cy="364.2" r="16" fill="#13509C"/>
      <g>
        <path d="M257.5 352c-3.6 0-6.9 1.6-9.2 4.3 -0.5 0.6-0.4 1.4 0.1 1.9 0.6 0.5 1.4 0.4 1.9-0.1 1.8-2.1 4.4-3.3 7.2-3.3 5.2 0 9.4 4.2 9.4 9.4 0 5.2-4.2 9.4-9.4 9.4 -2.8 0-5.4-1.2-7.2-3.3 -0.5-0.6-1.3-0.6-1.9-0.1 -0.6 0.5-0.6 1.3-0.1 1.9 2.3 2.7 5.7 4.3 9.2 4.3 6.7 0 12.1-5.4 12.1-12.1C269.6 357.5 264.2 352 257.5 352z" fill="#FFF"/>
        <path d="M253.3 368.6c-0.5 0.5-0.5 1.4 0 1.9 0.3 0.3 0.6 0.4 1 0.4 0.3 0 0.7-0.1 1-0.4l5.4-5.4 0 0c0.2-0.2 0.4-0.6 0.4-1 0-0.4-0.2-0.7-0.4-1l0 0 -5.4-5.4c-0.5-0.5-1.4-0.5-1.9 0 -0.5 0.5-0.5 1.4 0 1.9l3.1 3.1h-9.2c-0.7 0-1.4 0.6-1.4 1.4 0 0.7 0.6 1.4 1.4 1.4h9.2L253.3 368.6z" fill="#FFF"/>
      </g>
    </g>
  </switch>
</svg>
