<svg xmlns="http://www.w3.org/2000/svg" width="40" height="40" viewBox="238 344 40 40">
  <switch>
    <g>
      <g>
        <circle cx="258" cy="364.3" r="19.3" fill="#FFF"/>
        <circle cx="258" cy="364.3" r="16" fill="#13509C"/>
        <path d="M257.8 375.7c-6.3 0-11.4-5.1-11.4-11.4 0-3.3 1.5-6.5 4-8.7 0.5-0.5 1.3-0.4 1.8 0.1 0.5 0.5 0.4 1.3-0.1 1.8 -2 1.7-3.1 4.2-3.1 6.7 0 4.9 4 8.9 8.9 8.9 4.9 0 8.9-4 8.9-8.9 0-2.6-1.1-5.1-3.1-6.7 -0.5-0.5-0.6-1.3-0.1-1.8 0.5-0.5 1.3-0.6 1.8-0.1 2.5 2.2 4 5.3 4 8.7C269.2 370.6 264.1 375.7 257.8 375.7z" fill="#FFF"/>
        <path d="M257.8 366.4c-0.7 0-1.3-0.6-1.3-1.3v-11.7c0-0.7 0.6-1.3 1.3-1.3 0.7 0 1.3 0.6 1.3 1.3v11.7C259.1 365.8 258.5 366.4 257.8 366.4z" fill="#FFF"/>
      </g>
    </g>
  </switch>
</svg>
