<svg xmlns="http://www.w3.org/2000/svg" width="180" height="60" viewBox="175 335 180 60" style="baseProfile:tiny;version:1">
  <switch>
     <g>
      <path d="M179.7 363.5c0-12.1 7-19.4 19-19.4s19 7.4 19 19.4c0 12.1-7 19.5-19 19.5C186.7 383 179.7 375.6 179.7 363.5M178.5 363.5c0-12.7 7.6-20.6 20.2-20.6 12.6 0 20.2 7.9 20.2 20.6 0 12.7-7.6 20.7-20.2 20.7C186 384.2 178.5 376.2 178.5 363.5z" style="fill-rule:evenodd;fill:#CCCCCB"/>
      <path d="M180.9 363.5c0-13.2 8.4-18.2 17.8-18.2 9.4 0 17.8 5 17.8 18.2 0 13.2-8.4 18.2-17.8 18.2S180.9 376.8 180.9 363.5" style="fill-rule:evenodd;fill:#13509C"/>
      <path d="M195.9 363.4h5.6l-2.8-5.8L195.9 363.4zM198.7 351c4.7 0 7.8 1.3 9.6 4 -1.1 0.1-2.3 0.1-3.4 0 -0.6 2.3-1.6 4.5-2.5 6.7l-3.3-6.7c-0.3 0.1-0.6 0.1-0.9 0l-3.3 6.7 -2.5-6.7c-1.2 0.1-2.3 0.2-3.4 0.1C190.9 352.3 194 351 198.7 351zM208.5 355.3c1.3 2 1.8 4.8 1.8 8.2 0 3.2-0.5 5.8-1.5 7.7 -0.6-0.5-0.8-1.2-1-2.1 -0.4-2.4-0.5-4.9-0.7-7.4l-0.1-4.8C207.3 356.1 207.7 355.6 208.5 355.3zM208.4 371.9c-1.8 2.8-4.9 4.2-9.7 4.2s-7.9-1.4-9.7-4.2c2-0.1 4 0 6.1 0.2v-0.3c-1.4-0.1-2.5-0.7-2-2.4 0.6-1.5 1.4-3 2.2-4.5 1 2.4 2 4.7 2.7 7.1h1.4c0.7-2.5 1.8-4.8 2.7-7.1 0.8 1.4 1.7 2.9 2.2 4.5 0.4 1.6-0.7 2.2-2 2.4v0.3C204.3 371.9 206.4 371.8 208.4 371.9zM188.6 371.3c-1.1-2-1.5-4.6-1.5-7.7 0-3.4 0.6-6.2 1.8-8.2 0.8 0.3 1.2 0.8 1.5 1.7 0.2 1.6 0 3.2-0.1 4.8l-0.7 7.4C189.4 370 189.1 370.8 188.6 371.3zM201.1 364.9h-4.8l2.4 5.8L201.1 364.9zM202.9 362.7l3 6.3 -0.8-11.8L202.9 362.7zM192.2 357.2l-0.8 11.8 3-6.3L192.2 357.2zM185.5 363.5c0-9.8 6.2-13.5 13.2-13.5s13.2 3.7 13.2 13.5c0 9.8-6.2 13.5-13.2 13.5C191.7 377.1 185.5 373.3 185.5 363.5z" style="fill-rule:evenodd;fill:#FFF"/>
      <g>
        <path d="M235.7 357.4c0.1 0.3 0.2 0.8 0.3 1.1 0.1-0.5 0.1-0.6 0.2-1.1l2.1-6.2c0.1-0.2 0.1-0.2 0.3-0.2h1.1c0.2 0 0.2 0 0.2 0.2l0.7 11.9v0 0c0 0.1-0.1 0.2-0.2 0.2h-1c-0.2 0-0.2 0-0.3-0.2l-0.3-9.1v-0.1c0-0.2 0-0.6 0.1-0.9l0-0.4c-0.1 0.6-0.2 1.2-0.4 1.6l-2.1 6.1c-0.1 0.2-0.1 0.2-0.3 0.2h-0.5c-0.2 0-0.2 0-0.3-0.2l-2-6.1c-0.2-0.5-0.3-1-0.3-1.6v0.3l0 0.3 0 0.4v0.3 0.1l-0.3 9.1c0 0.2 0 0.2-0.2 0.2h-1c-0.2 0-0.3 0-0.3-0.2v-0.1l0.7-11.9c0-0.2 0-0.2 0.3-0.2h1.1c0.2 0 0.2 0 0.3 0.2L235.7 357.4z" fill="#1F509C"/>
        <path d="M245 359.6l-1 3.5c0 0.1-0.1 0.2-0.3 0.2h-1.1c-0.2 0-0.3 0-0.3-0.1 0 0 0 0 0-0.2l3.6-11.9c0.1-0.2 0.1-0.2 0.3-0.2h1.1c0.2 0 0.2 0 0.3 0.2l3.6 11.9c0 0.1 0 0.1 0 0.1 0 0.1-0.1 0.1-0.3 0.1h-1.2c-0.1 0-0.2-0.1-0.3-0.2l-1-3.5H245zM248.3 358.4l-1.1-4c-0.2-0.6-0.3-1.2-0.4-1.7 -0.1 0.5-0.2 1-0.4 1.7l-1.1 4H248.3z" fill="#1F509C"/>
        <path d="M252.8 361.5c0-0.1 0.1-0.1 0.1-0.1 0.1 0 0.1 0 0.3 0.1 0.9 0.5 1.8 0.8 2.6 0.8 1.3 0 2.2-0.8 2.2-2 0-1.1-0.5-1.7-2.2-2.7 -1.5-0.9-1.8-1.1-2.3-1.6 -0.5-0.5-0.7-1.3-0.7-2 0-1.9 1.5-3.3 3.5-3.3 1.2 0 3 0.6 3 1 0 0 0 0 0 0.1l-0.3 0.8c0 0.1-0.1 0.1-0.1 0.1 -0.1 0-0.1 0-0.8-0.4 -0.5-0.2-1.2-0.4-1.7-0.4 -1.2 0-2 0.7-2 1.8 0 0.6 0.3 1.2 0.7 1.5 0.4 0.3 0.4 0.3 2.2 1.4 1.1 0.6 1.4 0.9 1.8 1.4 0.4 0.5 0.6 1.2 0.6 1.9 0 2.1-1.5 3.5-3.8 3.5 -1.4 0-3.4-0.6-3.4-1.1 0 0 0-0.1 0-0.1L252.8 361.5z" fill="#1F509C"/>
        <path d="M264.4 355.7c0.3 0.5 0.3 0.6 0.5 1.1 0.1-0.4 0.3-0.7 0.5-1.1l2.2-4.7c0.1-0.1 0.1-0.2 0.2-0.2 0 0 0.1 0 0.1 0l1 0.3c0.1 0 0.2 0.1 0.2 0.1 0 0 0 0.1-0.1 0.2l-3.4 6.6v5c0 0.2 0 0.3-0.3 0.3h-1c-0.2 0-0.3 0-0.3-0.3v-5l-3.5-6.6c0-0.1-0.1-0.1-0.1-0.2 0-0.1 0.1-0.1 0.2-0.1l1.1-0.3 0.1 0c0 0 0.1 0 0.1 0 0.1 0 0.1 0 0.2 0.2L264.4 355.7z" fill="#1F509C"/>
        <path d="M269.8 361.5c0-0.1 0.1-0.1 0.1-0.1s0.1 0 0.3 0.1c0.9 0.5 1.8 0.8 2.6 0.8 1.3 0 2.2-0.8 2.2-2 0-1.1-0.5-1.7-2.3-2.7 -1.5-0.9-1.8-1.1-2.3-1.6 -0.5-0.5-0.7-1.3-0.7-2 0-1.9 1.5-3.3 3.5-3.3 1.2 0 3 0.6 3 1 0 0 0 0 0 0.1l-0.3 0.8c0 0.1-0.1 0.1-0.1 0.1 -0.1 0-0.1 0-0.8-0.4 -0.5-0.2-1.2-0.4-1.7-0.4 -1.2 0-2 0.7-2 1.8 0 0.6 0.3 1.2 0.7 1.5 0.4 0.3 0.4 0.3 2.2 1.4 1.1 0.6 1.4 0.9 1.8 1.4 0.4 0.5 0.6 1.2 0.6 1.9 0 2.1-1.5 3.5-3.8 3.5 -1.4 0-3.4-0.6-3.4-1.1 0 0 0-0.1 0-0.1L269.8 361.5z" fill="#1F509C"/>
        <path d="M282.2 363.1c0 0.2 0 0.3-0.3 0.3h-1c-0.2 0-0.3 0-0.3-0.3v-10.8h-2.6c-0.2 0-0.3 0-0.3-0.3v-0.8c0-0.2 0-0.3 0.3-0.3h7c0.2 0 0.3 0 0.3 0.1 0 0 0 0.1 0 0.1l0 0.1 -0.3 0.8c0 0.1-0.1 0.2-0.3 0.2h-2.6V363.1z" fill="#1F509C"/>
        <path d="M292.2 353.7c0 2.1-1.5 3.7-3.3 3.7s-3.4-1.7-3.4-3.7c0-2.1 1.5-3.7 3.4-3.7C290.7 350 292.2 351.7 292.2 353.7zM286 353.7c0 1.8 1.3 3.2 2.8 3.2s2.8-1.4 2.8-3.2c0-1.8-1.2-3.2-2.8-3.2C287.3 350.5 286 352 286 353.7zM290.4 355.6c0 0 0 0.1 0 0.1 0 0.1 0 0.1-0.1 0.1l-0.4 0.1c0 0 0 0 0 0 -0.1 0-0.1 0-0.1-0.1l-1-1.8h-0.4v1.7c0 0.1 0 0.1-0.2 0.1h-0.3c-0.1 0-0.2 0-0.2-0.1v-3.9c0-0.1 0-0.1 0.2-0.1h1c0.4 0 0.7 0 0.8 0.1 0.3 0.2 0.5 0.5 0.5 1 0 0.6-0.3 1-0.8 1.2L290.4 355.6zM288.7 353.5c0.5 0 0.8-0.2 0.8-0.7 0-0.5-0.2-0.6-0.8-0.6h-0.4v1.3H288.7z" fill="#1F509C"/>
      </g>
      <g>
        <path d="M231.3 372.1c-0.2 0-0.2 0-0.2-0.2v-0.8c0-0.2 0-0.2 0.2-0.2h2.6c0.2 0 0.2 0 0.2 0.2v6.4c0 0.2 0 0.2-0.2 0.2h-1.3c-0.2 0-0.2 0-0.2-0.2v-5.4H231.3zM234.3 368.7c0 0.6-0.5 1.1-1.1 1.1s-1.1-0.5-1.1-1.1c0-0.6 0.5-1.1 1.1-1.1C233.8 367.6 234.3 368.1 234.3 368.7z" fill="#FDFEFD"/>
        <path d="M237.2 370.5c0 0 0.1 0 0.1 0 0.2 0 0.4 0.4 0.5 1 0.7-0.6 1.3-0.9 2.1-0.9 1.2 0 1.8 0.7 1.8 2.2v4.7c0 0.2 0 0.2-0.2 0.2h-1.3c-0.2 0-0.2 0-0.2-0.2v-4.3c0-0.8-0.2-1.2-0.8-1.2 -0.4 0-0.7 0.2-1.2 0.6v4.9c0 0.2 0 0.2-0.2 0.2h-1.3c-0.2 0-0.2 0-0.2-0.2v-4.7c0-0.6-0.1-1.1-0.3-1.5 0-0.1 0-0.1 0-0.1s0-0.1 0.1-0.1L237.2 370.5z" fill="#FDFEFD"/>
        <path d="M244 370.2c0-1 0.1-1.4 0.5-1.9 0.4-0.5 1-0.8 1.8-0.8 0.9 0 1.7 0.3 1.7 0.5 0 0 0 0 0 0.1l-0.3 1c0 0.1-0.1 0.1-0.1 0.1 0 0-0.1 0-0.1 0 -0.3-0.1-0.6-0.2-0.8-0.2 -0.3 0-0.5 0.1-0.7 0.3 -0.1 0.2-0.1 0.3-0.1 0.8v0.6h1.6c0.2 0 0.2 0 0.2 0.1 0 0 0 0.1 0 0.1l-0.2 0.8c0 0.2-0.1 0.2-0.3 0.2h-1.3v5.4c0 0.2 0 0.2-0.2 0.2h-1.3c-0.2 0-0.2 0-0.2-0.2v-5.4h-1.1c-0.2 0-0.2 0-0.2-0.3v-0.8c0-0.2 0.1-0.2 0.2-0.2h1.1V370.2z" fill="#FDFEFD"/>
        <path d="M254 374.2c0 2.3-1.2 3.7-3 3.7 -1.9 0-3.1-1.4-3.1-3.7 0-1.1 0.3-2 0.8-2.7 0.6-0.7 1.3-1 2.3-1C252.9 370.5 254 371.9 254 374.2zM249.8 374.2c0 1.6 0.3 2.3 1.1 2.3 0.8 0 1.2-0.7 1.2-2.3 0-1.7-0.3-2.3-1.2-2.3C250.2 371.9 249.8 372.6 249.8 374.2z" fill="#FDFEFD"/>
        <path d="M256.4 370.6c0.1 0 0.1 0 0.2 0 0.2 0 0.4 0.4 0.5 1.1 0.3-0.3 0.3-0.4 0.5-0.5 0.4-0.4 0.8-0.5 1.3-0.5 0.4 0 0.8 0.2 0.8 0.3 0 0 0 0.1 0 0.2l-0.4 1.1c0 0.1-0.1 0.1-0.1 0.1 0 0-0.1 0-0.1 0 -0.2-0.1-0.4-0.1-0.6-0.1 -0.3 0-0.6 0.2-1.1 0.7v4.7c0 0.2 0 0.2-0.2 0.2h-1.3c-0.2 0-0.2 0-0.2-0.2v-4.3c0-0.8-0.1-1.2-0.4-1.9 0 0 0-0.1 0-0.1 0-0.1 0.1-0.1 0.1-0.1L256.4 370.6z" fill="#FDFEFD"/>
        <path d="M262.4 377.4c0 0.2 0 0.2-0.2 0.2h-1.3c-0.2 0-0.2 0-0.2-0.2v-4.7c0-0.7-0.1-1-0.3-1.5 0-0.1 0-0.1 0-0.2 0-0.1 0.1-0.1 0.2-0.2l1.1-0.4c0.1 0 0.1 0 0.1 0 0.2 0 0.3 0.4 0.4 1 0.8-0.7 1.3-1 2.1-1 0.7 0 1.2 0.3 1.5 1 0.8-0.7 1.4-1 2.2-1 0.6 0 1.1 0.3 1.3 0.7 0.2 0.4 0.3 0.8 0.3 1.6v4.6c0 0.2 0 0.2-0.2 0.2h-1.3c-0.2 0-0.2 0-0.2-0.2v-4.4c0-0.8-0.2-1.1-0.6-1.1 -0.4 0-0.7 0.2-1.2 0.6v4.9c0 0.2 0 0.2-0.2 0.2h-1.3c-0.2 0-0.2 0-0.2-0.2v-4.3c0-0.9-0.1-1.2-0.6-1.2 -0.4 0-0.7 0.2-1.2 0.6V377.4z" fill="#FDFEFD"/>
        <path d="M274.6 372.9c0-0.8-0.2-1.1-0.9-1.1 -0.4 0-1 0.1-1.6 0.4 -0.1 0-0.1 0-0.2 0 -0.1 0-0.1 0-0.1-0.1l-0.3-0.8c0 0 0-0.1 0-0.2 0-0.3 1.3-0.6 2.4-0.6 1.1 0 1.9 0.4 2.2 1.1 0.1 0.3 0.2 0.6 0.2 1.2v2.9c0 0.6 0.1 1 0.3 1.5 0 0.1 0 0.1 0 0.2 0 0.1 0 0.1-0.1 0.1l-1.1 0.4c0 0-0.1 0-0.2 0 -0.1 0-0.3-0.3-0.4-0.8 -0.6 0.6-1.1 0.8-1.8 0.8 -1.3 0-2.1-0.8-2.1-2.1 0-1.2 0.7-2 2.1-2.3 0.4-0.1 0.8-0.1 1.6-0.1V372.9zM274.6 374.5c-1.4 0-2 0.3-2 1.1 0 0.5 0.4 1 0.9 1 0.4 0 0.7-0.2 1.1-0.5V374.5z" fill="#FDFEFD"/>
        <path d="M282.7 377c0 0.1 0 0.1 0 0.2 0 0.4-1.1 0.8-2 0.8 -1.9 0-3-1.3-3-3.6 0-2.4 1.2-3.8 3.2-3.8 0.9 0 2 0.4 2 0.8 0 0 0 0.1 0 0.2l-0.5 0.9c0 0.1-0.1 0.1-0.1 0.1s-0.1 0-0.1-0.1c-0.5-0.4-0.8-0.5-1.2-0.5 -1 0-1.4 0.7-1.4 2.4 0 1.5 0.4 2.2 1.4 2.2 0.4 0 0.7-0.1 1.1-0.4 0.1 0 0.1-0.1 0.2-0.1 0 0 0.1 0 0.1 0.1L282.7 377zM282 367.4c0.1-0.1 0.2-0.1 0.2-0.1 0.1 0 0.1 0 0.2 0.2l0.3 0.4c0.1 0.1 0.1 0.2 0.1 0.2 0 0.1 0 0.1-0.2 0.2l-1.6 1.2c-0.1 0.1-0.2 0.1-0.2 0.1 0 0-0.1 0-0.2-0.1l-1.6-1.2c-0.1-0.1-0.2-0.1-0.2-0.2 0 0 0-0.1 0.1-0.2l0.3-0.4c0.1-0.2 0.1-0.2 0.2-0.2 0 0 0.1 0 0.2 0.1l1.2 0.7L282 367.4z" fill="#FDFEFD"/>
        <path d="M285 370.5c0 0 0.1 0 0.1 0 0.2 0 0.4 0.4 0.5 1 0.7-0.6 1.3-0.9 2.1-0.9 1.2 0 1.8 0.7 1.8 2.2v4.7c0 0.2 0 0.2-0.2 0.2h-1.3c-0.2 0-0.2 0-0.2-0.2v-4.3c0-0.8-0.2-1.2-0.8-1.2 -0.4 0-0.7 0.2-1.2 0.6v4.9c0 0.2 0 0.2-0.2 0.2h-1.3c-0.2 0-0.2 0-0.2-0.2v-4.7c0-0.6-0.1-1.1-0.3-1.5 0-0.1 0-0.1 0-0.1s0-0.1 0.1-0.1L285 370.5z" fill="#FDFEFD"/>
        <path d="M290.7 372.1c-0.2 0-0.2 0-0.2-0.2v-0.8c0-0.2 0-0.2 0.2-0.2h2.6c0.2 0 0.2 0 0.2 0.2v6.4c0 0.2 0 0.2-0.2 0.2h-1.3c-0.2 0-0.2 0-0.2-0.2v-5.4H290.7zM292.4 369.6c-0.1 0-0.2 0-0.2 0 -0.1 0-0.1 0-0.2-0.2l-0.2-0.4c-0.1-0.1-0.1-0.1-0.1-0.2 0-0.1 0-0.1 0.2-0.2l2.3-1.4c0.1-0.1 0.2-0.1 0.2-0.1 0.1 0 0.1 0 0.2 0.2l0.4 0.9c0.1 0.1 0.1 0.2 0.1 0.2 0 0.1-0.1 0.1-0.2 0.2L292.4 369.6z" fill="#FDFEFD"/>
        <path d="M298.3 376c0-0.1 0.1-0.1 0.1-0.1 0 0 0.1 0 0.1 0 0.7 0.4 1.4 0.6 1.9 0.6 0.5 0 0.8-0.3 0.8-0.7 0-0.4-0.2-0.5-1.1-0.9 -0.9-0.4-1.2-0.5-1.5-0.8 -0.4-0.4-0.6-0.8-0.6-1.4 0-1.3 1-2.3 2.5-2.3 0.9 0 2.1 0.4 2.1 0.6 0 0 0 0.1 0 0.2l-0.3 0.8c0 0.1-0.1 0.1-0.1 0.1 0 0-0.1 0-0.1 0 -0.5-0.2-1-0.4-1.4-0.4 -0.6 0-0.9 0.3-0.9 0.7 0 0.4 0.2 0.5 0.9 0.8 1 0.4 1.3 0.6 1.6 0.8 0.4 0.4 0.6 0.9 0.6 1.4 0 0.6-0.2 1.2-0.6 1.6 -0.4 0.4-1 0.6-1.7 0.6 -0.8 0-1.7-0.2-2.4-0.6 -0.3-0.1-0.3-0.2-0.3-0.3 0-0.1 0-0.1 0-0.2L298.3 376z" fill="#FDFEFD"/>
        <path d="M306.2 374.3c0.2 1 0.4 1.6 0.5 2.4 0.1-0.5 0.2-1.1 0.2-1.2 0-0.2 0.1-0.4 0.1-0.6l0.1-0.6 0.8-3.4c0-0.2 0.1-0.2 0.2-0.2 0 0 0.1 0 0.1 0l1.2 0.1c0.2 0 0.2 0.1 0.2 0.1 0 0 0 0 0 0.1l-1.4 5.1c-0.1 0.3-0.2 0.6-0.2 0.9 -0.5 2-0.7 2.4-1.1 2.9 -0.4 0.5-1 0.7-1.7 0.7 -0.8 0-1.9-0.4-1.9-0.7 0 0 0 0 0.1-0.2l0.4-0.9c0-0.1 0.1-0.1 0.1-0.1 0 0 0.1 0 0.1 0 0.4 0.2 0.8 0.3 1.1 0.3 0.6 0 0.9-0.3 1.1-1.1l0.2-0.6h-0.6c-0.2 0-0.2 0-0.3-0.2l-2.2-6.4c0-0.1 0-0.1 0-0.2 0-0.1 0.1-0.1 0.2-0.1l1.4-0.2h0.1c0.1 0 0.1 0 0.2 0.2L306.2 374.3z" fill="#FDFEFD"/>
        <path d="M310.4 376c0-0.1 0.1-0.1 0.1-0.1 0 0 0.1 0 0.1 0 0.7 0.4 1.4 0.6 1.9 0.6 0.5 0 0.8-0.3 0.8-0.7 0-0.4-0.2-0.5-1.1-0.9 -0.9-0.4-1.2-0.5-1.5-0.8 -0.4-0.4-0.6-0.8-0.6-1.4 0-1.3 1-2.3 2.5-2.3 0.9 0 2.1 0.4 2.1 0.6 0 0 0 0.1 0 0.2l-0.3 0.8c0 0.1-0.1 0.1-0.1 0.1 0 0-0.1 0-0.1 0 -0.5-0.2-1-0.4-1.4-0.4 -0.6 0-0.9 0.3-0.9 0.7 0 0.4 0.2 0.5 0.9 0.8 1 0.4 1.3 0.6 1.6 0.8 0.4 0.4 0.6 0.9 0.6 1.4 0 0.6-0.2 1.2-0.6 1.6 -0.4 0.4-1 0.6-1.7 0.6 -0.8 0-1.7-0.2-2.4-0.6 -0.3-0.1-0.3-0.2-0.3-0.3 0-0.1 0-0.1 0-0.2L310.4 376z" fill="#FDFEFD"/>
        <path d="M317 369c0-0.2 0-0.2 0.2-0.3l1.3-0.2h0.1c0.1 0 0.1 0.1 0.1 0.2v2h1.6c0.2 0 0.2 0 0.2 0.1 0 0 0 0.1 0 0.1l-0.2 0.8c0 0.2-0.1 0.2-0.3 0.2h-1.4v3.4c0 0.7 0.1 0.9 0.5 0.9 0.3 0 0.4 0 0.9-0.2 0 0 0.1 0 0.1 0 0.1 0 0.1 0.1 0.1 0.1l0.2 1c0 0.1 0 0.1 0 0.2 0 0.1-0.1 0.2-0.4 0.3 -0.5 0.2-1 0.2-1.4 0.2 -0.7 0-1.3-0.2-1.6-0.7 -0.2-0.4-0.3-0.7-0.3-1.5v-3.7h-1c-0.2 0-0.2 0-0.2-0.2v-0.8c0-0.2 0-0.2 0.2-0.2h1V369z" fill="#FDFEFD"/>
        <path d="M323 374.7c0 1.2 0.5 1.8 1.6 1.8 0.5 0 1.1-0.2 1.6-0.4 0.1 0 0.1-0.1 0.2-0.1 0.1 0 0.1 0 0.2 0.1l0.4 0.8c0 0.1 0 0.1 0 0.2 0 0.2-0.1 0.2-0.6 0.4 -0.6 0.3-1.2 0.4-1.9 0.4 -0.9 0-1.6-0.2-2.1-0.7 -0.7-0.6-1.1-1.7-1.1-3 0-2.3 1.2-3.8 3.1-3.8s2.8 1.3 2.8 3.8c0 0.3-0.1 0.4-0.3 0.4H323zM325.2 373.4c0-1.2-0.3-1.6-1-1.6 -0.7 0-1 0.4-1.2 1.6H325.2zM324.1 369.6c-0.1 0-0.2 0-0.2 0 -0.1 0-0.1 0-0.2-0.2l-0.2-0.4c-0.1-0.1-0.1-0.1-0.1-0.2 0-0.1 0-0.1 0.2-0.2l2.3-1.4c0.1-0.1 0.2-0.1 0.2-0.1 0.1 0 0.1 0 0.2 0.2l0.4 0.9c0.1 0.1 0.1 0.2 0.1 0.2 0 0.1-0.1 0.1-0.2 0.2L324.1 369.6z" fill="#FDFEFD"/>
        <path d="M330.3 377.4c0 0.2 0 0.2-0.2 0.2h-1.3c-0.2 0-0.2 0-0.2-0.2v-4.7c0-0.7-0.1-1-0.3-1.5 0-0.1 0-0.1 0-0.2 0-0.1 0.1-0.1 0.2-0.2l1.1-0.4c0.1 0 0.1 0 0.1 0 0.2 0 0.3 0.4 0.4 1 0.8-0.7 1.3-1 2.1-1 0.7 0 1.2 0.3 1.5 1 0.8-0.7 1.4-1 2.2-1 0.6 0 1.1 0.3 1.3 0.7 0.2 0.4 0.3 0.8 0.3 1.6v4.6c0 0.2 0 0.2-0.2 0.2h-1.3c-0.2 0-0.2 0-0.2-0.2v-4.4c0-0.8-0.2-1.1-0.6-1.1 -0.4 0-0.7 0.2-1.2 0.6v4.9c0 0.2 0 0.2-0.2 0.2h-1.3c-0.2 0-0.2 0-0.2-0.2v-4.3c0-0.9-0.1-1.2-0.6-1.2 -0.4 0-0.7 0.2-1.2 0.6V377.4z" fill="#FDFEFD"/>
      </g>
    </g>
  </switch>
</svg>
